<svg
                viewBox="0 0 899 399"
                fill="none"
                xmlns="http://www.w3.org/2000/svg"
              >
                <g clipPath="url(#clip0)">
                  <path
                    d="M382.338 254.742H18.5C13.5952 254.737 8.89284 252.786 5.42461 249.318C1.95638 245.849 0.00550532 241.147 0 236.242V14.0884C0.00413416 10.3533 1.4897 6.77231 4.13078 4.13113C6.77187 1.48996 10.3528 0.00426407 14.0879 0H386.541C390.332 0.00426936 393.966 1.51198 396.646 4.19234C399.327 6.87269 400.834 10.5068 400.838 14.2974V236.242C400.833 241.147 398.882 245.849 395.414 249.318C391.946 252.786 387.243 254.737 382.338 254.742V254.742Z"
                    fill="white"
                  />
                  <path
                    d="M382.338 254.742H18.5C13.5952 254.737 8.89284 252.786 5.42461 249.318C1.95638 245.849 0.00550532 241.147 0 236.242V14.0884C0.00413416 10.3533 1.4897 6.77231 4.13078 4.13113C6.77187 1.48996 10.3528 0.00426407 14.0879 0H386.541C390.332 0.00426936 393.966 1.51198 396.646 4.19234C399.327 6.87269 400.834 10.5068 400.838 14.2974V236.242C400.833 241.147 398.882 245.849 395.414 249.318C391.946 252.786 387.243 254.737 382.338 254.742V254.742ZM14.0879 4C11.4133 4.00313 8.84914 5.06704 6.95796 6.95831C5.06678 8.84959 4.003 11.4138 4 14.0884V236.242C4.00438 240.086 5.53346 243.772 8.25179 246.49C10.9701 249.209 14.6557 250.738 18.5 250.742H382.338C386.183 250.738 389.868 249.209 392.587 246.49C395.305 243.772 396.834 240.086 396.838 236.242V14.2974C396.835 11.5673 395.75 8.94988 393.819 7.01941C391.889 5.08894 389.271 4.00306 386.541 4H14.0879Z"
                    fill="#E6E6E6"
                  />
                  <path
                    d="M166.111 198.496H57.0915C54.4242 198.492 51.8489 197.521 49.8435 195.762C47.838 194.003 46.5387 191.577 46.1865 188.933C46.1203 188.457 46.0885 187.977 46.0915 187.496V67.246C46.0948 64.3296 47.2548 61.5337 49.317 59.4715C51.3792 57.4093 54.1751 56.2493 57.0915 56.246H166.111C169.028 56.2493 171.824 57.4093 173.886 59.4715C175.948 61.5337 177.108 64.3296 177.111 67.246V187.496C177.108 190.412 175.948 193.208 173.886 195.271C171.824 197.333 169.028 198.493 166.111 198.496V198.496ZM57.0915 62.246C55.7659 62.2475 54.495 62.7748 53.5576 63.7122C52.6203 64.6495 52.093 65.9204 52.0915 67.246V187.496C52.0894 187.702 52.1021 187.907 52.1296 188.111C52.2827 189.32 52.8708 190.432 53.7839 191.239C54.6971 192.046 55.8728 192.493 57.0915 192.496H166.111C167.437 192.494 168.708 191.967 169.645 191.03C170.583 190.093 171.11 188.822 171.111 187.496V67.246C171.11 65.9204 170.583 64.6495 169.645 63.7122C168.708 62.7748 167.437 62.2475 166.111 62.246H57.0915Z"
                    fill="#E6E6E6"
                  />
                  <path
                    d="M346.747 159.396H214.747C212.625 159.396 210.59 158.553 209.09 157.053C207.59 155.552 206.747 153.518 206.747 151.396C206.747 149.274 207.59 147.239 209.09 145.739C210.59 144.239 212.625 143.396 214.747 143.396H346.747C348.869 143.396 350.903 144.239 352.404 145.739C353.904 147.239 354.747 149.274 354.747 151.396C354.747 153.518 353.904 155.552 352.404 157.053C350.903 158.553 348.869 159.396 346.747 159.396Z"
                    fill="#E6E6E6"
                  />
                  <path
                    d="M286.747 125.396H214.747C212.625 125.396 210.59 124.553 209.09 123.053C207.59 121.552 206.747 119.518 206.747 117.396C206.747 115.274 207.59 113.239 209.09 111.739C210.59 110.239 212.625 109.396 214.747 109.396H286.747C288.869 109.396 290.903 110.239 292.404 111.739C293.904 113.239 294.747 115.274 294.747 117.396C294.747 119.518 293.904 121.552 292.404 123.053C290.903 124.553 288.869 125.396 286.747 125.396Z"
                    fill="#E6E6E6"
                  />
                  <path
                    d="M147.548 124.066C147.548 141.739 131.206 139.066 111.048 139.066C90.8894 139.066 74.5479 141.739 74.5479 124.066C74.5479 106.393 82.5303 75.066 111.048 75.066C140.548 75.066 147.548 106.393 147.548 124.066Z"
                    fill="#2F2E41"
                  />
                  <path
                    d="M149.024 153.81C148.32 151.778 146.917 150.062 145.064 148.97C144.707 148.75 144.332 148.56 143.944 148.4C142.32 147.724 140.533 147.537 138.804 147.86C137.075 148.183 135.477 149.003 134.206 150.22C132.935 151.437 132.046 152.997 131.648 154.711C131.25 156.425 131.36 158.217 131.964 159.87L146.504 192.92H165.654L149.024 153.81Z"
                    fill="#3F3D56"
                  />
                  <path
                    d="M85.5739 155.61C84.4247 155.054 83.171 154.748 81.8951 154.712C80.6192 154.675 79.35 154.908 78.1706 155.396C76.9913 155.884 75.9285 156.616 75.0519 157.544C74.1753 158.472 73.5047 159.575 73.0842 160.78L59.5442 192.63C60.2376 192.823 60.9542 192.921 61.6741 192.92H78.6643L90.1438 166.84C90.9095 164.734 90.8659 162.42 90.0215 160.345C89.1771 158.27 87.5921 156.582 85.5739 155.61V155.61Z"
                    fill="#3F3D56"
                  />
                  <path
                    d="M110.926 139.037C124.49 139.037 135.487 128.04 135.487 114.475C135.487 100.911 124.49 89.9145 110.926 89.9145C97.3611 89.9145 86.3647 100.911 86.3647 114.475C86.3647 128.04 97.3611 139.037 110.926 139.037Z"
                    fill="#FFB8B8"
                  />
                  <path
                    d="M145.494 149.36C145.354 149.23 145.214 149.09 145.064 148.97C143.352 147.426 141.326 146.272 139.125 145.586C136.924 144.901 134.6 144.701 132.314 145L87.0541 150.73C82.908 151.243 79.1249 153.351 76.5074 156.607C73.8899 159.863 72.644 164.01 73.0341 168.17C73.6542 175.15 74.6542 183.96 76.2543 192.92H147.754L150.384 162.36C150.596 159.965 150.266 157.553 149.42 155.303C148.573 153.053 147.232 151.021 145.494 149.36V149.36Z"
                    fill="#3F3D56"
                  />
                  <path
                    d="M82.5479 112.066H92.2622L96.5479 100.066L97.4048 112.066H102.048L104.548 105.066L105.048 112.066H139.548C139.548 105.17 136.809 98.5572 131.933 93.6812C127.057 88.8053 120.443 86.066 113.548 86.066H108.548C101.652 86.066 95.039 88.8053 90.1631 93.6812C85.2871 98.5572 82.5479 105.17 82.5479 112.066V112.066Z"
                    fill="#2F2E41"
                  />
                  <path
                    d="M497.26 236.242V14.2974C497.264 10.5068 498.772 6.87269 501.452 4.19234C504.132 1.51198 507.766 0.00426936 511.557 0H884.01C887.745 0.00426407 891.326 1.48996 893.967 4.13113C896.608 6.77231 898.094 10.3533 898.098 14.0884V236.242C898.093 241.147 896.142 245.849 892.674 249.318C889.205 252.786 884.503 254.737 879.598 254.742H515.76C510.855 254.737 506.153 252.786 502.684 249.318C499.216 245.849 497.265 241.147 497.26 236.242V236.242Z"
                    fill="white"
                  />
                  <path
                    d="M497.26 236.242V14.2974C497.264 10.5068 498.772 6.87269 501.452 4.19234C504.132 1.51198 507.766 0.00426936 511.557 0H884.01C887.745 0.00426407 891.326 1.48996 893.967 4.13113C896.608 6.77231 898.094 10.3533 898.098 14.0884V236.242C898.093 241.147 896.142 245.849 892.674 249.318C889.205 252.786 884.503 254.737 879.598 254.742H515.76C510.855 254.737 506.153 252.786 502.684 249.318C499.216 245.849 497.265 241.147 497.26 236.242V236.242ZM511.557 4C508.827 4.00306 506.209 5.08894 504.279 7.01941C502.349 8.94988 501.263 11.5673 501.26 14.2974V236.242C501.264 240.086 502.793 243.772 505.512 246.49C508.23 249.209 511.915 250.738 515.76 250.742H879.598C883.442 250.738 887.128 249.209 889.846 246.49C892.565 243.772 894.094 240.086 894.098 236.242V14.0884C894.095 11.4138 893.031 8.84959 891.14 6.95831C889.249 5.06704 886.685 4.00313 884.01 4H511.557Z"
                    fill="#E6E6E6"
                  />
                  <path
                    d="M720.987 187.496V67.246C720.99 64.3296 722.15 61.5337 724.212 59.4715C726.274 57.4093 729.07 56.2493 731.987 56.246H841.007C843.923 56.2493 846.719 57.4093 848.781 59.4715C850.844 61.5337 852.004 64.3296 852.007 67.246V187.496C852.01 187.977 851.978 188.457 851.912 188.933C851.56 191.577 850.26 194.003 848.255 195.762C846.249 197.521 843.674 198.492 841.007 198.496H731.987C729.07 198.493 726.274 197.333 724.212 195.271C722.15 193.208 720.99 190.412 720.987 187.496V187.496ZM731.987 62.246C730.661 62.2475 729.39 62.7748 728.453 63.7122C727.516 64.6495 726.988 65.9204 726.987 67.246V187.496C726.988 188.822 727.516 190.093 728.453 191.03C729.39 191.967 730.661 192.494 731.987 192.496H841.007C842.226 192.493 843.401 192.046 844.314 191.239C845.228 190.432 845.816 189.32 845.969 188.111C845.996 187.907 846.009 187.702 846.007 187.496V67.246C846.005 65.9204 845.478 64.6495 844.541 63.7122C843.603 62.7748 842.332 62.2475 841.007 62.246H731.987Z"
                    fill="#E6E6E6"
                  />
                  <path
                    d="M543.351 151.396C543.354 149.275 544.197 147.241 545.697 145.742C547.197 144.242 549.23 143.398 551.351 143.396H683.351C685.473 143.396 687.508 144.239 689.008 145.739C690.508 147.239 691.351 149.274 691.351 151.396C691.351 153.518 690.508 155.552 689.008 157.053C687.508 158.553 685.473 159.396 683.351 159.396H551.351C549.23 159.393 547.197 158.55 545.697 157.05C544.197 155.55 543.354 153.517 543.351 151.396V151.396Z"
                    fill="#E6E6E6"
                  />
                  <path
                    d="M543.351 117.396C543.354 115.275 544.197 113.241 545.697 111.742C547.197 110.242 549.23 109.398 551.351 109.396H623.351C625.473 109.396 627.508 110.239 629.008 111.739C630.508 113.239 631.351 115.274 631.351 117.396C631.351 119.518 630.508 121.552 629.008 123.053C627.508 124.553 625.473 125.396 623.351 125.396H551.351C549.23 125.393 547.197 124.55 545.697 123.05C544.197 121.55 543.354 119.517 543.351 117.396Z"
                    fill="#E6E6E6"
                  />
                  <path
                    d="M759.555 102.976C766.565 116.759 772.091 130.976 787.555 130.976C794.981 130.976 802.103 128.026 807.354 122.775C812.605 117.524 815.555 110.402 815.555 102.976C815.555 95.5498 812.605 88.4279 807.354 83.1769C802.103 77.9258 794.981 74.9758 787.555 74.9758C771.839 74.7791 746.506 77.3204 759.555 102.976Z"
                    fill="#2F2E41"
                  />
                  <path
                    d="M786.177 131.521C799.741 131.521 810.738 120.525 810.738 106.96C810.738 93.3954 799.741 82.3991 786.177 82.3991C772.612 82.3991 761.615 93.3954 761.615 106.96C761.615 120.525 772.612 131.521 786.177 131.521Z"
                    fill="#A0616A"
                  />
                  <path
                    d="M819.709 151.73C818.125 150.005 816.403 148.413 814.559 146.97C806.496 140.651 796.391 137.519 786.169 138.17C785.759 138.19 785.349 138.22 784.939 138.26C779.018 138.733 773.267 140.462 768.066 143.331C762.866 146.2 758.336 150.144 754.779 154.9C751.166 159.728 748.626 165.273 747.329 171.162C746.033 177.052 746.009 183.15 747.259 189.05C747.529 190.3 747.769 191.56 747.999 192.82H829.419L830.359 186.52C831.299 180.294 830.83 173.936 828.987 167.915C827.143 161.894 823.973 156.363 819.709 151.73V151.73Z"
                    fill="#3F3D56"
                  />
                  <path
                    d="M832.179 158.3C831.605 155.014 829.896 152.033 827.351 149.877C824.806 147.721 821.585 146.526 818.249 146.5C818.119 146.5 817.979 146.51 817.849 146.51C816.738 146.535 815.634 146.69 814.559 146.97C812.752 147.45 811.057 148.283 809.573 149.42C808.088 150.557 806.843 151.975 805.908 153.595C804.973 155.214 804.368 157.003 804.126 158.857C803.884 160.711 804.011 162.595 804.499 164.4L812.189 192.82H838.069L832.179 158.3Z"
                    fill="#3F3D56"
                  />
                  <path
                    d="M775.229 150.85C774.253 148.934 772.855 147.265 771.139 145.97C769.924 145.052 768.566 144.343 767.119 143.87C766.528 143.668 765.923 143.507 765.309 143.39C761.964 142.757 758.504 143.34 755.551 145.035C752.599 146.729 750.35 149.423 749.209 152.63L735.129 192.82H761.849L775.479 163.26C776.387 161.309 776.837 159.177 776.794 157.026C776.75 154.875 776.215 152.762 775.229 150.85V150.85Z"
                    fill="#3F3D56"
                  />
                  <path
                    d="M760.114 93.0795C765.726 96.9479 772.388 99.0066 779.204 98.9794C776.773 100.665 774.005 101.804 771.091 102.317C780.154 104.261 789.52 104.314 798.605 102.472C800.624 102.148 802.572 101.479 804.364 100.494C805.257 99.995 806.035 99.3139 806.648 98.4947C807.261 97.6756 807.694 96.7367 807.92 95.739C808.523 92.2905 805.836 89.1575 803.044 87.046C798.768 83.8624 793.838 81.6691 788.611 80.6245C783.384 79.58 777.99 79.7104 772.819 81.0063C769.443 81.879 766.061 83.3535 763.868 86.0649C761.675 88.7763 761.025 92.9565 763.114 95.7485L760.114 93.0795Z"
                    fill="#2F2E41"
                  />
                  <path
                    d="M630.968 398.742H267.13C262.225 398.737 257.523 396.786 254.054 393.318C250.586 389.849 248.635 385.147 248.63 380.242V158.088C248.634 154.353 250.12 150.772 252.761 148.131C255.402 145.49 258.983 144.004 262.718 144H635.171C638.962 144.004 642.596 145.512 645.276 148.192C647.956 150.873 649.464 154.507 649.468 158.297V380.242C649.463 385.147 647.512 389.849 644.044 393.318C640.575 396.786 635.873 398.737 630.968 398.742V398.742Z"
                    fill="white"
                  />
                  <path
                    d="M630.968 398.742H267.13C262.225 398.737 257.523 396.786 254.054 393.318C250.586 389.849 248.635 385.147 248.63 380.242V158.088C248.634 154.353 250.12 150.772 252.761 148.131C255.402 145.49 258.983 144.004 262.718 144H635.171C638.962 144.004 642.596 145.512 645.276 148.192C647.956 150.873 649.464 154.507 649.468 158.297V380.242C649.463 385.147 647.512 389.849 644.044 393.318C640.575 396.786 635.873 398.737 630.968 398.742V398.742ZM262.718 148C260.043 148.003 257.479 149.067 255.588 150.958C253.697 152.85 252.633 155.414 252.63 158.088V380.242C252.634 384.086 254.163 387.772 256.882 390.49C259.6 393.209 263.286 394.738 267.13 394.742H630.968C634.813 394.738 638.498 393.209 641.216 390.49C643.935 387.772 645.464 384.086 645.468 380.242V158.297C645.465 155.567 644.379 152.95 642.449 151.019C640.519 149.089 637.901 148.003 635.171 148H262.718Z"
                    fill="#17262E"
                  />
                  <path
                    d="M414.741 342.496H305.721C303.054 342.492 300.479 341.521 298.473 339.762C296.468 338.003 295.169 335.577 294.816 332.933C294.75 332.457 294.718 331.977 294.721 331.496V211.246C294.725 208.33 295.885 205.534 297.947 203.471C300.009 201.409 302.805 200.249 305.721 200.246H414.741C417.658 200.249 420.454 201.409 422.516 203.471C424.578 205.534 425.738 208.33 425.741 211.246V331.496C425.738 334.412 424.578 337.208 422.516 339.271C420.454 341.333 417.658 342.493 414.741 342.496V342.496ZM305.721 206.246C304.396 206.248 303.125 206.775 302.188 207.712C301.25 208.65 300.723 209.92 300.721 211.246V331.496C300.719 331.702 300.732 331.907 300.759 332.111C300.913 333.32 301.501 334.432 302.414 335.239C303.327 336.046 304.503 336.493 305.721 336.496H414.741C416.067 336.495 417.338 335.967 418.275 335.03C419.213 334.092 419.74 332.822 419.741 331.496V211.246C419.74 209.92 419.213 208.65 418.275 207.712C417.338 206.775 416.067 206.248 414.741 206.246H305.721Z"
                    fill="#E6E6E6"
                  />
                  <path
                    d="M358.648 222.23C351.551 218.928 342.838 217.846 335.617 220.914C328.395 223.982 323.472 231.845 325.807 238.805C326.866 241.96 329.277 245.063 328.338 248.25C327.615 250.703 325.092 252.322 322.615 253.473C320.138 254.625 317.428 255.593 315.637 257.535C313.845 259.477 313.471 262.82 315.709 264.326C316.447 264.823 317.368 265.058 318.083 265.581C318.692 266.076 319.132 266.749 319.341 267.506C319.55 268.262 319.517 269.065 319.247 269.803C318.652 271.287 317.667 272.582 316.397 273.554C313.856 275.745 310.499 278.252 311.287 281.362C311.58 282.194 312.069 282.942 312.713 283.544C313.356 284.146 314.135 284.584 314.984 284.82C316.747 285.329 318.577 285.57 320.411 285.536L395.377 287.898C397.852 288.084 400.341 287.945 402.779 287.485C403.964 287.268 405.093 286.81 406.093 286.138C407.093 285.466 407.944 284.595 408.592 283.58C410.028 280.922 409.085 277.649 407.312 275.168C405.539 272.686 403.03 270.729 400.957 268.451C398.884 266.172 397.188 263.328 397.553 260.383C397.846 258.026 399.4 255.988 400.516 253.847C401.632 251.705 402.281 249.028 400.835 247.058C398.798 244.281 393.908 244.532 391.592 241.945C389.844 239.992 390.182 237.181 390.008 234.663C389.59 228.607 385.397 222.887 379.428 220.231C376.393 218.928 373.091 218.365 369.796 218.59C366.5 218.814 363.305 219.819 360.475 221.522L358.648 222.23Z"
                    fill="#2F2E41"
                  />
                  <path
                    d="M361.422 287.317C374.987 287.317 385.983 276.321 385.983 262.756C385.983 249.191 374.987 238.195 361.422 238.195C347.857 238.195 336.861 249.191 336.861 262.756C336.861 276.321 347.857 287.317 361.422 287.317Z"
                    fill="#A0616A"
                  />
                  <path
                    d="M393.668 319.036C393.644 314.731 392.452 310.513 390.218 306.833C387.985 303.152 384.795 300.146 380.988 298.136C380.679 297.966 380.358 297.816 380.039 297.666C377.275 296.356 374.283 295.595 371.229 295.426L347.849 294.116C344.547 293.927 341.242 294.435 338.148 295.606C337.395 295.886 336.658 296.207 335.938 296.566C333.679 297.679 331.612 299.148 329.818 300.916C327.456 303.249 325.607 306.05 324.391 309.139C323.175 312.229 322.619 315.539 322.758 318.856L323.179 328.766L326.119 336.396H391.488C392.299 335.413 393.003 334.347 393.588 333.216C394.697 331.019 395.281 328.596 395.295 326.135C395.308 323.675 394.752 321.245 393.668 319.036V319.036Z"
                    fill="#3F3D56"
                  />
                  <path
                    d="M392.068 305.896C391.002 303.581 389.33 301.598 387.229 300.156C385.712 299.117 384.012 298.377 382.218 297.976C381.501 297.818 380.772 297.714 380.039 297.666C378.595 297.568 377.144 297.692 375.738 298.036C373.639 298.558 371.686 299.551 370.027 300.938C368.368 302.326 367.046 304.072 366.161 306.046C365.275 308.02 364.85 310.169 364.918 312.331C364.985 314.493 365.542 316.611 366.548 318.526L375.539 335.546L375.988 336.396H406.179L392.068 305.896Z"
                    fill="#3F3D56"
                  />
                  <path
                    d="M342.658 297.026C341.244 296.306 339.72 295.826 338.148 295.606C336.979 295.439 335.793 295.422 334.619 295.556C331.631 295.894 328.827 297.168 326.607 299.196C324.387 301.224 322.865 303.901 322.258 306.846L316.168 336.396H339.988L344.438 334.576L349.978 313.316C350.784 310.173 350.499 306.85 349.169 303.89C347.839 300.93 345.543 298.51 342.658 297.026Z"
                    fill="#3F3D56"
                  />
                  <path
                    d="M336.295 259.264C344.052 258.641 350.492 250.893 349.685 243.153C349.594 246.343 350.679 249.456 352.733 251.898C354.788 254.34 357.668 255.942 360.826 256.399C364.384 256.791 368.285 255.715 371.382 257.51C374.812 259.498 375.909 264.325 379.483 266.042C382.935 267.701 387.32 265.439 389.026 262.009C390.732 258.579 390.313 254.459 389.183 250.799C387.571 245.58 384.635 240.866 380.662 237.118C376.689 233.369 371.813 230.712 366.509 229.406C361.204 228.1 355.652 228.189 350.393 229.664C345.133 231.139 340.345 233.95 336.493 237.824C333.232 241.104 330.642 245.285 330.222 249.892C329.802 254.499 331.939 259.498 336.076 261.567L336.295 259.264Z"
                    fill="#2F2E41"
                  />
                  <path
                    d="M595.377 303.396H463.377C461.255 303.396 459.22 302.553 457.72 301.053C456.22 299.552 455.377 297.518 455.377 295.396C455.377 293.274 456.22 291.239 457.72 289.739C459.22 288.239 461.255 287.396 463.377 287.396H595.377C597.498 287.396 599.533 288.239 601.034 289.739C602.534 291.239 603.377 293.274 603.377 295.396C603.377 297.518 602.534 299.552 601.034 301.053C599.533 302.553 597.498 303.396 595.377 303.396Z"
                    fill="#E6E6E6"
                  />
                  <path
                    d="M535.377 269.396H463.377C461.255 269.396 459.22 268.553 457.72 267.053C456.22 265.552 455.377 263.518 455.377 261.396C455.377 259.274 456.22 257.239 457.72 255.739C459.22 254.239 461.255 253.396 463.377 253.396H535.377C537.498 253.396 539.533 254.239 541.034 255.739C542.534 257.239 543.377 259.274 543.377 261.396C543.377 263.518 542.534 265.552 541.034 267.053C539.533 268.553 537.498 269.396 535.377 269.396Z"
                    fill="#EA5730"
                  />
                  <path
                    d="M574.01 327.82C567.022 327.833 560.325 330.617 555.389 335.563C550.453 340.508 547.68 347.21 547.68 354.198C547.68 361.185 550.453 367.887 555.389 372.833C560.325 377.778 567.022 380.563 574.009 380.576H574.01C580.997 380.563 587.694 377.778 592.63 372.833C597.566 367.887 600.339 361.185 600.339 354.198C600.339 347.21 597.566 340.508 592.63 335.563C587.694 330.618 580.997 327.833 574.01 327.82V327.82Z"
                    fill="#EA5730"
                  />
                  <path
                    d="M571.507 365.153C570.812 365.154 570.136 364.929 569.581 364.513L569.546 364.487L562.292 358.938C561.615 358.417 561.172 357.649 561.061 356.802C560.95 355.955 561.179 355.099 561.699 354.421C562.219 353.743 562.986 353.299 563.833 353.187C564.68 353.074 565.536 353.302 566.215 353.821L570.914 357.424L582.016 342.939C582.274 342.604 582.595 342.322 582.961 342.11C583.328 341.898 583.732 341.761 584.152 341.705C584.571 341.65 584.998 341.678 585.406 341.787C585.815 341.896 586.198 342.085 586.534 342.343L586.535 342.343L586.466 342.439L586.537 342.343C587.215 342.864 587.658 343.632 587.77 344.479C587.881 345.327 587.652 346.183 587.133 346.862L574.074 363.892C573.771 364.284 573.383 364.602 572.938 364.82C572.494 365.038 572.005 365.15 571.51 365.149L571.507 365.153Z"
                    fill="white"
                  />
                </g>
                <defs>
                  <clipPath id="clip0">
                    <rect width="898.098" height="398.742" fill="white" />
                  </clipPath>
                </defs>
                </svg>