<svg width="1057" height="206" viewBox="0 0 1057 206" fill="none" xmlns="http://www.w3.org/2000/svg">
<path d="M296.941 75.4102C296.941 81.1914 294.629 84.6562 289.43 84.6562H278.445V40.1523H289.43C294.629 40.1523 296.941 43.043 296.941 49.4023V75.4102ZM313.125 75.9883V45.3555C313.125 31.4844 306.77 23.9688 294.051 23.9688H261.684V147.66H278.445V97.375H288.273L299.254 147.66H314.859L303.301 96.2188C310.234 93.9062 313.125 86.9688 313.125 75.9883Z" fill="#333333"/>
<path d="M365.145 126.273C365.145 130.898 362.832 133.211 358.785 133.211H350.117C344.914 133.211 342.605 130.898 342.605 126.273V46.5117C342.605 41.8867 344.914 39.5742 350.117 39.5742H357.633C362.836 39.5742 365.145 41.8867 365.145 46.5117V126.273ZM361.68 24.5469H346.07C332.777 24.5469 326.422 31.4844 326.422 45.9336V127.43C326.422 141.301 333.355 148.238 346.648 148.238H362.258C375.551 148.238 382.484 141.301 382.484 127.43V45.9336C381.328 31.4844 374.973 24.5469 361.68 24.5469Z" fill="#333333"/>
<path d="M425.836 24.5469H415.43C402.137 24.5469 395.777 31.4844 395.777 45.3555V126.852C395.777 140.723 402.137 147.66 415.43 147.66H425.836C439.129 147.66 445.488 140.723 445.488 126.852V118.762H428.727V125.695C428.727 130.32 426.414 132.633 422.367 132.633H418.32C413.695 132.633 411.965 130.32 411.965 125.695V46.5117C411.965 41.8867 414.273 39.5742 418.32 39.5742H421.789C426.992 39.5742 429.305 41.8867 429.305 46.5117V59.2266H446.066V45.3555C445.488 31.4844 439.129 24.5469 425.836 24.5469Z" fill="#333333"/>
<path d="M458.781 24.5469H475.543V148.238H458.781V24.5469Z" fill="#333333"/>
<path d="M508.488 24.5469H493.461L476.121 86.3906V87.5469L496.93 148.238H513.113L491.148 85.8164L508.488 24.5469Z" fill="#333333"/>
<path d="M522.938 148.238H563.398V133.211H539.121V92.1719H561.086V77.1445H539.121V39.5742H563.398V24.5469H522.938V148.238Z" fill="#333333"/>
<path d="M569.758 24.5469V39.5742H585.363V148.238H602.125V39.5742H617.73V24.5469H569.758Z" fill="#333333"/>
<path d="M626.977 24.5469H643.738V148.238H626.977V24.5469Z" fill="#333333"/>
<path d="M693.445 84.0781L675.527 24.5469H659.348V148.238H675.527V67.3203L693.445 123.383V148.238H710.211V24.5469H693.445V84.0781Z" fill="#333333"/>
<path d="M719.457 39.5742H735.062V148.238H751.824V39.5742H767.43V24.5469H719.457V39.5742Z" fill="#333333"/>
<path d="M777.258 148.238H818.297V133.211H793.441V92.1719H815.402V77.1445H793.441V39.5742H818.297V24.5469H777.258V148.238Z" fill="#333333"/>
<path d="M864.535 75.4102C864.535 81.1914 862.223 84.6562 857.02 84.6562H846.039V40.1523H857.02C862.223 40.1523 864.535 43.043 864.535 49.4023V75.4102ZM881.297 75.9883V45.3555C881.297 31.4844 874.938 23.9688 862.223 23.9688H829.855V147.66H846.617V97.375H856.441L867.426 147.66H883.031L871.469 96.2188C877.828 93.9062 881.297 86.9688 881.297 75.9883Z" fill="#333333"/>
<path d="M929.27 84.0781L911.93 24.5469H895.168V148.238H911.93V67.3203L929.27 123.383V148.238H946.031V24.5469H929.27V84.0781Z" fill="#333333"/>
<path d="M961.637 148.238H1002.67V133.211H977.82V92.1719H999.785V77.1445H977.82V39.5742H1002.67V24.5469H961.637V148.238Z" fill="#333333"/>
<path d="M1008.45 24.5469V39.5742H1024.06V148.238H1040.82V39.5742H1056.43V24.5469H1008.45Z" fill="#333333"/>
<path d="M192.902 56.9141C203.887 86.9688 197.527 122.227 173.25 146.504C159.379 160.375 142.039 168.469 124.121 170.781C119.496 177.137 115.453 182.918 111.406 187.543C135.68 186.965 159.379 177.715 177.875 159.219C207.93 129.164 214.289 84.6562 196.949 48.8203C195.793 51.1328 194.637 54.0234 192.902 56.9141Z" fill="#333333"/>
<path d="M35.6875 81.1914C38 63.2734 46.0938 46.5117 59.9648 33.2187C83.6602 8.9414 118.918 2.58203 148.977 12.9844C151.863 11.832 154.176 10.0977 157.066 8.9414C121.23 -7.82032 77.3047 -0.886723 47.2461 28.5937C29.332 46.5117 19.5039 70.207 18.9258 93.9062C23.5508 89.8594 29.332 85.8164 35.6875 81.1914Z" fill="#333333"/>
<path d="M202.5 3.25391C202.949 3.70313 199.289 8.09375 194.324 13.0586C189.355 18.0234 184.965 21.6836 184.512 21.2305C184.059 20.7773 187.723 16.3867 192.688 11.4258C197.656 6.46094 202.047 2.80078 202.5 3.25391Z" fill="#ED1F24"/>
<path d="M202.73 3.16015C201.574 2.58203 142.039 30.3281 90.5977 63.2734C27.5977 103.73 1.00783 130.32 1.00783 130.32C-0.726543 132.055 -0.148418 133.789 2.16408 133.789C2.16408 133.789 51.8711 135.523 61.1211 144.77C70.3672 154.02 72.1016 203.727 72.1016 203.727C72.1016 206.035 73.836 206.613 75.5703 204.883C75.5703 204.883 102.156 178.293 142.039 115.293C175.563 63.8516 203.887 4.3164 202.73 3.16015Z" fill="#333333"/>
</svg>
