<svg width="300" height="52" viewBox="0 0 300 52" fill="none" xmlns="http://www.w3.org/2000/svg">
<g clip-path="url(#clip0)">
<path d="M50.579 25.776C50.579 39.742 39.257 51.06 25.288 51.06C11.313 51.06 0 39.743 0 25.776C0 11.807 11.313 0.481018 25.288 0.481018C39.257 0.481018 50.579 11.807 50.579 25.776Z" fill="#333333"/>
<path d="M21.945 39.363V30.934H25.598L31.922 39.363H38.387L30.746 29.192C33.127 27.483 34.692 24.703 34.692 21.555C34.692 16.384 30.487 12.185 25.317 12.185H16.78V39.364H21.945V39.363ZM21.945 17.345H25.315C27.634 17.345 29.531 19.232 29.531 21.555C29.531 23.885 27.634 25.77 25.315 25.77H21.945V17.345Z" fill="white"/>
<path d="M221.335 38.391C220.867 39.371 219.824 40.805 217.714 40.805C216.363 40.805 213.815 39.899 213.815 36.46V20.74H226.559V12.091H213.815V3.01001H205.165V12.091H199.023V20.74H205.165V36.46C205.163 44.597 211.546 49.457 217.714 49.457C224.025 49.457 228.207 45.161 229.759 40.654L221.335 38.391Z" fill="#333333"/>
<path d="M114.493 12.091V13.708C111.999 12.12 109.131 11.196 106.069 11.196C96.661 11.196 89.007 19.776 89.007 30.313C89.007 40.853 96.66 49.427 106.069 49.427C109.131 49.427 112 48.507 114.493 46.916V48.532H123.142V12.091H114.493ZM106.069 40.778C101.43 40.778 97.654 36.083 97.654 30.312C97.654 24.545 101.43 19.85 106.069 19.85C110.714 19.85 114.493 24.545 114.493 30.312C114.493 36.083 110.714 40.778 106.069 40.778Z" fill="#333333"/>
<path d="M187.347 12.091V33.498C187.347 37.513 184.083 40.778 180.065 40.778C176.05 40.778 172.784 37.513 172.784 33.498V12.091H164.134V33.498C164.134 42.281 171.281 49.427 180.065 49.427C182.688 49.427 185.162 48.782 187.347 47.651V48.532H195.996V12.091H187.347Z" fill="#333333"/>
<path d="M284.069 11.196C281.446 11.196 278.975 11.847 276.79 12.974V12.091H268.14V48.532H276.79V27.129C276.79 23.11 280.054 19.843 284.069 19.843C288.085 19.843 291.35 23.11 291.35 27.129V48.531H300V27.129C300 18.348 292.856 11.196 284.069 11.196Z" fill="#333333"/>
<path d="M264.68 30.311C264.68 19.757 257.021 11.166 247.61 11.166C238.038 11.166 230.539 19.578 230.539 30.311C230.539 41.597 240.166 49.459 248.808 49.459C253.17 49.459 259.142 47.963 263.838 41.302L256.306 36.952C249.918 44.756 241.016 39.459 240.128 32.857L264.512 32.862C264.608 32.014 264.68 31.162 264.68 30.311ZM254.9 25.125H240.314C241.933 18.039 253.295 16.563 254.9 25.125Z" fill="#333333"/>
<path d="M145.32 29.172L162.404 12.091H150.171L136.982 25.284V0H128.332V48.531H136.982V33.063L152.447 48.531H164.674L145.32 29.172Z" fill="#333333"/>
<path d="M64.287 48.531V34.413H70.405L80.997 48.531H91.825L79.026 31.496C83.015 28.633 85.634 23.978 85.634 18.704C85.634 10.044 78.592 3.01001 69.932 3.01001H55.637V48.532H64.287V48.531ZM64.287 11.653H69.932C73.816 11.653 76.993 14.813 76.993 18.704C76.993 22.606 73.816 25.764 69.932 25.764H64.287V11.653V11.653Z" fill="#333333"/>
</g>
<defs>
<clipPath id="clip0">
<rect width="300" height="51.06" fill="white"/>
</clipPath>
</defs>
</svg>
