<svg width="3338" height="1770" viewBox="0 0 3338 1770" fill="none" xmlns="http://www.w3.org/2000/svg">
<path fill-rule="evenodd" clip-rule="evenodd" d="M632.505 1461.15C442.107 1461.15 310.801 1301.63 310.801 1065.71C310.801 827.545 442.107 668.021 632.505 668.021C822.904 668.021 954.231 827.545 954.231 1063.46C954.231 1301.63 822.904 1461.15 632.505 1461.15V1461.15ZM632.505 1759.99C984.858 1759.99 1265 1463.4 1265 1063.46C1265 668.021 1000.18 369.176 632.505 369.176C280.152 369.176 0.0227051 665.769 0.0227051 1065.71C0.0227051 1467.9 264.828 1759.99 632.505 1759.99Z" fill="#333333"/>
<path fill-rule="evenodd" clip-rule="evenodd" d="M1525.43 1229.72H2129.47C2171.04 1229.72 2195.12 1205.02 2195.12 1162.31V966.838C2195.12 924.156 2171.04 899.447 2129.47 899.447H1724.58V68.0957C1724.58 25.402 1700.51 0.693237 1658.94 0.693237H1459.77C1418.19 0.693237 1394.12 25.402 1394.12 68.0957V1094.92C1394.12 1182.54 1440.08 1229.72 1525.43 1229.72" fill="#333333"/>
<path fill-rule="evenodd" clip-rule="evenodd" d="M2346.14 1739.75L2709.44 1310.61L3061.79 1739.75C3092.43 1777.95 3131.83 1777.95 3166.84 1746.5L3309.09 1618.43C3344.1 1586.96 3348.48 1546.52 3315.66 1510.58L2923.91 1061.2L3280.64 650.03C3311.28 614.082 3309.09 575.871 3274.08 542.175L3140.57 418.61C3105.56 384.892 3066.17 387.145 3035.52 425.334L2709.44 814.048L2376.79 425.334C2346.14 389.386 2306.75 384.892 2271.73 418.61L2133.84 544.428C2098.83 578.124 2096.65 614.082 2129.47 652.272L2492.77 1063.44L2096.65 1515.08C2063.8 1553.26 2068.19 1591.46 2103.2 1622.92L2241.08 1746.5C2276.11 1777.95 2315.49 1775.71 2346.14 1739.75" fill="#333333"/>
</svg>
