<svg width="1016" height="163" viewBox="0 0 1016 163" fill="none" xmlns="http://www.w3.org/2000/svg">
<path d="M75.7834 44.1251L97.1637 23.1225C88.8243 17.9836 77.3737 15.6279 63.1003 15.6279H55.8741H22.2083L0.837891 127.996H34.4739H43.4694C92.989 127.996 112.789 92.5813 112.789 55.7248C112.789 46.1528 110.781 38.4992 106.885 32.5453L75.7834 44.1251ZM45.8151 101.269H39.5233L50.8347 42.0179H59.6612C73.0201 42.0179 77.8906 50.1088 77.8906 61.1817C77.8906 83.5659 65.7641 101.269 45.8151 101.269ZM961.835 130.879C936.837 130.879 924.591 119.925 924.591 98.0481C924.591 73.7355 936.379 40.7357 977.908 40.7357C1002.75 40.7357 1015.16 52.0073 1015.16 73.5964C1015.16 98.386 1003.36 130.879 961.835 130.879ZM973.802 66.6585C960.911 66.6585 957.442 86.7864 957.442 95.8017C957.442 103.048 960.434 105.125 966.268 105.125C978.981 105.125 982.291 84.9972 982.291 75.8527C982.291 68.7657 979.468 66.6585 973.802 66.6585ZM921.111 73.4205C919.391 72.9338 915.952 72.4464 913.428 72.4464C906.35 72.4464 900.675 79.7024 898.16 93.0514L891.55 127.99H859.495L875.508 43.661H899.572L900.367 54.9028C907.762 45.5793 913.567 40.7387 922.522 40.7387C926.627 40.7387 928.814 41.0568 929.937 41.3947L921.111 73.4205V73.4205ZM806.789 96.7699C806.63 97.565 806.491 99.0262 806.491 99.8213C806.491 104.98 809.95 106.739 819.055 106.739C827.245 106.739 838.875 104.652 845.644 102.247V125.903C836.996 129.124 823.458 130.883 812.604 130.883C787.128 130.883 774.863 123.796 774.863 100.149C774.863 76.9401 785.399 40.7396 825.973 40.7396C851.776 40.7396 859.49 52.6773 859.49 65.2212C859.49 81.4726 845.783 95.3187 806.789 96.7699V96.7699ZM823.617 62.9748C816.222 62.9748 811.988 69.2368 810.258 76.4928C824.88 76.4928 829.303 71.8212 829.303 67.9447C829.303 65.2212 826.917 62.9748 823.617 62.9748V62.9748ZM756.964 127.996H723.12L731.151 85.4942H702.525L694.493 127.996H660.698L682.079 15.6279H715.903L708.2 55.7248H736.827L744.53 15.6279H778.325L756.964 127.996V127.996ZM633.645 43.654C619.481 81.3156 606.907 108.839 594.324 127.843C576.084 155.695 560.032 162.135 543.512 162.135C538.641 162.135 533.463 160.823 530.928 159.541L535.978 135.239H546.991C552.487 135.239 554.843 132.972 558.461 127.992C552.328 105.3 549.337 73.5924 549.655 43.654H581.899C581.243 57.3211 581.412 71.4951 582.217 84.3671C582.376 88.0646 582.664 91.6032 582.982 95.1616H583.151C584.563 91.7622 586.123 88.3926 587.555 84.6851C592.902 71.3261 598.101 56.0289 601.54 43.654H633.645V43.654ZM533.331 73.4205C531.591 72.9338 528.122 72.4464 525.617 72.4464C518.53 72.4464 512.875 79.7024 510.34 93.0514L503.77 127.99H471.655L487.717 43.661H511.791L512.567 54.9028C519.952 45.5793 525.786 40.7387 534.742 40.7387C538.817 40.7387 541.034 41.0568 542.117 41.3947L533.331 73.4205V73.4205ZM418.999 96.7699C418.849 97.565 418.671 99.0262 418.671 99.8213C418.671 104.98 422.14 106.739 431.255 106.739C439.435 106.739 451.065 104.652 457.824 102.247V125.903C449.176 129.124 435.658 130.883 424.814 130.883C399.329 130.883 387.063 123.796 387.063 100.149C387.063 76.9401 397.589 40.7396 438.173 40.7396C463.967 40.7396 471.65 52.6773 471.65 65.2212C471.65 81.4726 458.003 95.3187 418.999 96.7699H418.999ZM435.817 62.9748C428.442 62.9748 424.168 69.2368 422.429 76.4928C437.07 76.4928 441.473 71.8212 441.473 67.9447C441.473 65.2212 439.127 62.9748 435.817 62.9748V62.9748ZM392.884 43.654C381.871 71.9822 369.764 99.6643 354.357 127.992H315.036C310.006 101.265 307.8 73.0954 308.436 43.654H340.521C339.876 57.4901 340.054 71.6641 340.819 84.8541C340.989 88.3927 341.307 91.7622 341.615 95.1616H341.794C343.195 91.7622 344.756 88.3927 346.177 84.8541C351.674 70.9882 356.703 55.8898 360.5 43.654H392.884H392.884ZM269.617 43.654H301.375L285.312 127.992H253.237L264.548 68.7617L269.617 43.654ZM288.614 36.5978C278.098 36.5978 271.319 29.6798 271.319 20.1774C271.319 7.78255 279.817 0.864502 290.334 0.864502C301.039 0.864502 307.659 7.78255 307.659 17.1159C307.659 29.6798 299.309 36.5978 288.614 36.5978V36.5978ZM146.628 96.7699C146.459 97.565 146.31 99.0262 146.31 99.8213C146.31 104.98 149.749 106.739 158.894 106.739C167.064 106.739 178.684 104.652 185.453 102.247V125.903C176.815 129.124 163.277 130.883 152.423 130.883C126.957 130.883 114.692 123.796 114.692 100.149C114.692 76.9401 125.218 40.7396 165.812 40.7396C191.586 40.7396 199.279 52.6773 199.279 65.2212C199.279 81.4726 185.622 95.3187 146.628 96.7699V96.7699ZM163.446 62.9748C156.061 62.9748 151.807 69.2368 150.087 76.4928C164.699 76.4928 169.112 71.8212 169.112 67.9447C169.112 65.2212 166.736 62.9748 163.446 62.9748ZM235.222 129.273H204.369L228.513 13.5247L262.158 0.87142L235.222 129.273V129.273Z" fill="#333333"/>
</svg>
