<svg width="750" height="750" viewBox="0 0 750 750" fill="none" xmlns="http://www.w3.org/2000/svg">
<path d="M750 0H0V331.668L43.333 375L0 418.333V750H750V418.333L706.667 375L750 331.668V0ZM650.956 388.908L702.988 440.94V702.988H47.011V440.897L98.993 388.915C106.678 381.23 106.678 368.77 98.993 361.084L47.011 309.102V47.011H702.988V309.045L650.955 361.077C643.271 368.763 643.271 381.223 650.956 388.908V388.908ZM337.116 170.127C330.077 155.843 320.488 145.291 308.336 138.468C296.172 131.621 280.856 128.21 262.374 128.21H200.596C195.373 128.21 191.902 128.971 190.197 130.468C188.494 131.99 187.635 135.057 187.635 139.671V331.467C187.635 336.105 188.494 339.149 190.197 340.67C191.902 342.167 195.373 342.928 200.596 342.928H269.904C302.657 342.928 325.061 328.963 337.115 301.01C339.923 294.58 341.885 288.101 342.988 281.548C344.093 275.02 344.643 266.725 344.643 256.687V215.972C344.643 204.511 344.092 195.455 342.988 188.829C341.886 182.178 339.924 175.969 337.116 170.127V170.127ZM294.014 257.276C294.014 265.522 293.462 272.419 292.359 277.941C291.254 283.463 289.452 287.954 286.938 291.366C284.425 294.777 281.113 297.182 276.994 298.606C272.874 300.005 267.797 300.716 261.776 300.716H237.067V170.422H261.776C273.23 170.422 281.458 173.809 286.484 180.534C291.5 187.258 294.014 198.376 294.014 213.862V257.276V257.276ZM333.447 577.146H248.729L337.941 451.712C339.344 449.699 340.254 448.08 340.661 446.877C341.067 445.675 341.263 444.276 341.263 442.656V418.53C341.263 413.916 340.401 410.848 338.692 409.327C336.981 407.83 333.498 407.069 328.257 407.069H199.447C194.808 407.069 191.793 407.928 190.379 409.621C188.964 411.339 188.261 414.897 188.261 420.346V438.434C188.261 443.857 188.964 447.441 190.379 449.134C191.793 450.852 194.808 451.711 199.447 451.711H278.963L190.971 577.145C188.742 579.967 187.635 582.79 187.635 585.588V610.326C187.635 614.964 188.497 618.008 190.206 619.529C191.917 621.026 195.399 621.787 200.641 621.787H333.446C338.085 621.787 341.113 620.928 342.527 619.235C343.93 617.517 344.643 613.959 344.643 608.51V590.423C344.643 584.999 343.93 581.44 342.527 579.722C341.114 578.005 338.086 577.146 333.447 577.146ZM550.862 407.069H530.665C525.442 407.069 521.971 407.83 520.268 409.327C518.563 410.849 517.718 413.916 517.718 418.53V532.209L458.048 418.236C455.633 413.401 453.265 410.333 450.96 409.033C448.644 407.732 444.584 407.07 438.759 407.07H420.07C414.847 407.07 411.376 407.831 409.673 409.328C407.968 410.85 407.109 413.917 407.109 418.531V610.327C407.109 614.965 407.907 618.009 409.524 619.53C411.132 621.027 414.54 621.788 419.765 621.788H440.268C445.478 621.788 448.949 621.027 450.654 619.53C452.359 618.008 453.216 614.965 453.216 610.327V496.329L512.886 610.621C515.301 615.456 517.656 618.524 519.974 619.824C522.281 621.149 526.35 621.787 532.175 621.787H550.864C556.088 621.787 559.545 621.026 561.263 619.529C562.966 618.007 563.825 614.964 563.825 610.326V418.53C563.825 413.916 562.966 410.848 561.263 409.327C559.543 407.83 556.086 407.069 550.862 407.069V407.069ZM581.937 329.97L518.648 138.468C517.238 134.247 515.632 131.474 513.83 130.173C512.015 128.872 509.096 128.21 505.087 128.21H470.126C466.105 128.21 463.148 128.921 461.236 130.321C459.323 131.72 457.765 134.444 456.563 138.469L392.676 329.97C391.867 330.976 391.474 332.964 391.474 335.983C391.474 340.621 394.284 342.928 399.911 342.928H426.128C428.543 342.928 430.494 342.83 432.001 342.633C433.51 342.437 434.712 341.921 435.62 341.111C436.527 340.326 437.323 339.098 438.035 337.503C438.734 335.883 439.481 333.773 440.29 331.171L450.236 297.696H522.267L532.506 330.558C533.315 333.38 534.112 335.589 534.921 337.209C535.717 338.804 536.626 340.055 537.632 340.964C538.638 341.872 539.838 342.437 541.248 342.633C542.646 342.829 544.461 342.928 546.669 342.928H574.702C580.318 342.928 583.137 340.621 583.137 335.983C583.137 334.584 583.09 333.627 582.99 333.136C582.88 332.62 582.537 331.565 581.937 329.97V329.97ZM461.689 259.092L485.798 177.956L510.506 259.092H461.689V259.092Z" fill="#333333"/>
</svg>
